<?xml version="1.0" standalone="no"?>
<!DOCTYPE svg PUBLIC "-//W3C//DTD SVG 20010904//EN"
 "http://www.w3.org/TR/2001/REC-SVG-20010904/DTD/svg10.dtd">
<svg version="1.0" xmlns="http://www.w3.org/2000/svg"
 width="223.000000pt" height="223.000000pt" viewBox="0 0 223.000000 223.000000"
 preserveAspectRatio="xMidYMid meet">
<metadata>
Created by potrace 1.14, written by Peter Selinger 2001-2017
</metadata>
<g transform="translate(0.000000,223.000000) scale(0.100000,-0.100000)"
fill="#000000" stroke="none">
<path d="M1095 2160 c-3 -11 -10 -20 -15 -20 -5 0 -7 7 -3 16 8 21 6 20 -477
-259 l-405 -234 -2 -519 -3 -519 21 33 c36 55 34 29 -2 -33 l-18 -30 438 -253
c241 -138 440 -252 444 -252 4 0 2 12 -3 28 -8 23 -8 24 3 9 36 -55 34 -54 52
-32 15 18 16 18 11 2 -7 -22 -17 -28 511 278 l381 220 -16 30 c-14 28 -14 29
2 16 15 -13 16 22 14 505 l-3 518 -420 242 c-231 134 -433 250 -448 260 l-29
16 12 -23 11 -24 -20 23 c-24 27 -28 27 -36 2z"/>
</g>
</svg>
